<?xml version="1.0" encoding="UTF-8" standalone="no"?>
<svg
   xmlns:dc="http://purl.org/dc/elements/1.1/"
   xmlns:cc="http://creativecommons.org/ns#"
   xmlns:rdf="http://www.w3.org/1999/02/22-rdf-syntax-ns#"
   xmlns:svg="http://www.w3.org/2000/svg"
   xmlns="http://www.w3.org/2000/svg"
   xmlns:sodipodi="http://sodipodi.sourceforge.net/DTD/sodipodi-0.dtd"
   xmlns:inkscape="http://www.inkscape.org/namespaces/inkscape"
   fill-opacity="0"
   color-rendering="auto"
   color-interpolation="auto"
   stroke="rgb(0,0,0)"
   text-rendering="auto"
   stroke-linecap="square"
   width="365"
   stroke-miterlimit="10"
   stroke-opacity="0"
   shape-rendering="auto"
   fill="rgb(0,0,0)"
   stroke-dasharray="none"
   font-weight="normal"
   stroke-width="1"
   height="346"
   font-family="'Dialog'"
   font-style="normal"
   stroke-linejoin="miter"
   font-size="12"
   stroke-dashoffset="0"
   image-rendering="auto"
   id="svg2"
   version="1.1"
   inkscape:version="0.48.2 r9819"
   sodipodi:docname="Use Case Diagram.svg">
  <metadata
     id="metadata318">
    <rdf:RDF>
      <cc:Work
         rdf:about="">
        <dc:format>image/svg+xml</dc:format>
        <dc:type
           rdf:resource="http://purl.org/dc/dcmitype/StillImage" />
      </cc:Work>
    </rdf:RDF>
  </metadata>
  <sodipodi:namedview
     pagecolor="#ffffff"
     bordercolor="#666666"
     borderopacity="1"
     objecttolerance="10"
     gridtolerance="10"
     guidetolerance="10"
     inkscape:pageopacity="0"
     inkscape:pageshadow="2"
     inkscape:window-width="1438"
     inkscape:window-height="885"
     id="namedview316"
     showgrid="false"
     inkscape:zoom="1.9292162"
     inkscape:cx="178.90291"
     inkscape:cy="-75.805708"
     inkscape:window-x="0"
     inkscape:window-y="13"
     inkscape:window-maximized="0"
     inkscape:current-layer="g5" />
  <!--Generated by the Batik Graphics2D SVG Generator-->
  <defs
     id="genericDefs" />
  <g
     id="g5">
    <defs
       id="defs1">
      <clipPath
         clipPathUnits="userSpaceOnUse"
         id="clipPath1">
        <path
           d="M-7 -7 L41 -7 L41 71 L-7 71 L-7 -7 Z"
           id="path9" />
      </clipPath>
      <clipPath
         clipPathUnits="userSpaceOnUse"
         id="clipPath2">
        <path
           d="M-7 -7 L91 -7 L91 51 L-7 51 L-7 -7 Z"
           id="path12" />
      </clipPath>
      <clipPath
         clipPathUnits="userSpaceOnUse"
         id="clipPath3">
        <path
           d="M-7 -7 L101 -7 L101 51 L-7 51 L-7 -7 Z"
           id="path15" />
      </clipPath>
      <clipPath
         clipPathUnits="userSpaceOnUse"
         id="clipPath4">
        <path
           d="M-51 -15 L102 -15 L102 30 L-51 30 L-51 -15 Z"
           id="path18" />
      </clipPath>
      <clipPath
         clipPathUnits="userSpaceOnUse"
         id="clipPath5">
        <path
           d="M-49 -15 L98 -15 L98 30 L-49 30 L-49 -15 Z"
           id="path21" />
      </clipPath>
      <clipPath
         clipPathUnits="userSpaceOnUse"
         id="clipPath6">
        <path
           d="M-80 -40 L160 -40 L160 80 L-80 80 L-80 -40 Z"
           id="path24" />
      </clipPath>
      <clipPath
         clipPathUnits="userSpaceOnUse"
         id="clipPath7">
        <path
           d="M-90 -40 L180 -40 L180 80 L-90 80 L-90 -40 Z"
           id="path27" />
      </clipPath>
      <clipPath
         clipPathUnits="userSpaceOnUse"
         id="clipPath8">
        <path
           d="M-68 -15 L136 -15 L136 30 L-68 30 L-68 -15 Z"
           id="path30" />
      </clipPath>
      <clipPath
         clipPathUnits="userSpaceOnUse"
         id="clipPath9">
        <path
           d="M0 0 L104 0 L104 174 L0 174 L0 0 Z"
           id="path33" />
      </clipPath>
      <clipPath
         clipPathUnits="userSpaceOnUse"
         id="clipPath10">
        <path
           d="M0 0 L146 0 L146 172 L0 172 L0 0 Z"
           id="path36" />
      </clipPath>
      <clipPath
         clipPathUnits="userSpaceOnUse"
         id="clipPath11">
        <path
           d="M0 0 L184 0 L184 104 L0 104 L0 0 Z"
           id="path39" />
      </clipPath>
      <clipPath
         clipPathUnits="userSpaceOnUse"
         id="clipPath12">
        <path
           d="M0 0 L181 0 L181 203 L0 203 L0 0 Z"
           id="path42" />
      </clipPath>
      <clipPath
         clipPathUnits="userSpaceOnUse"
         id="clipPath13">
        <path
           d="M0 0 L189 0 L189 104 L0 104 L0 0 Z"
           id="path45" />
      </clipPath>
      <clipPath
         clipPathUnits="userSpaceOnUse"
         id="clipPath14">
        <path
           d="M0 0 L189 0 L189 128 L0 128 L0 0 Z"
           id="path48" />
      </clipPath>
      <clipPath
         clipPathUnits="userSpaceOnUse"
         id="clipPath15">
        <path
           d="M0 0 L182 0 L182 171 L0 171 L0 0 Z"
           id="path51" />
      </clipPath>
      <clipPath
         clipPathUnits="userSpaceOnUse"
         id="clipPath16">
        <path
           d="M0 0 L226 0 L226 159 L0 159 L0 0 Z"
           id="path54" />
      </clipPath>
      <clipPath
         clipPathUnits="userSpaceOnUse"
         id="clipPath17">
        <path
           d="M0 0 L218 0 L218 138 L0 138 L0 0 Z"
           id="path57" />
      </clipPath>
      <clipPath
         clipPathUnits="userSpaceOnUse"
         id="clipPath18">
        <path
           d="M0 0 L203 0 L203 104 L0 104 L0 0 Z"
           id="path60" />
      </clipPath>
      <clipPath
         clipPathUnits="userSpaceOnUse"
         id="clipPath19">
        <path
           d="M0 0 L222 0 L222 211 L0 211 L0 0 Z"
           id="path63" />
      </clipPath>
      <clipPath
         clipPathUnits="userSpaceOnUse"
         id="clipPath20">
        <path
           d="M0 0 L184 0 L184 150 L0 150 L0 0 Z"
           id="path66" />
      </clipPath>
      <clipPath
         clipPathUnits="userSpaceOnUse"
         id="clipPath21">
        <path
           d="M0 0 L199 0 L199 144 L0 144 L0 0 Z"
           id="path69" />
      </clipPath>
      <clipPath
         clipPathUnits="userSpaceOnUse"
         id="clipPath22">
        <path
           d="M-81 -15 L162 -15 L162 30 L-81 30 L-81 -15 Z"
           id="path72" />
      </clipPath>
    </defs>
    <g
       fill="white"
       text-rendering="geometricPrecision"
       fill-opacity="1"
       stroke-opacity="1"
       stroke="white"
       id="g74">
      <rect
         x="0"
         width="365"
         height="346"
         y="0"
         stroke="none"
         id="rect76" />
    </g>
    <g
       font-size="11"
       transform="translate(21,102)"
       fill-opacity="1"
       fill="white"
       text-rendering="geometricPrecision"
       font-family="sans-serif"
       stroke="white"
       stroke-opacity="1"
       id="g78">
      <circle
         r="7.5"
         clip-path="url(#clipPath1)"
         cx="14.5"
         cy="7.5"
         stroke="none"
         id="circle80"
         d="M 22,7.5 C 22,11.642136 18.642136,15 14.5,15 10.357864,15 7,11.642136 7,7.5 7,3.3578644 10.357864,0 14.5,0 18.642136,0 22,3.3578644 22,7.5 z" />
    </g>
    <g
       font-size="11"
       stroke-linecap="butt"
       transform="translate(21,102)"
       fill-opacity="1"
       fill="black"
       text-rendering="geometricPrecision"
       font-family="sans-serif"
       stroke-linejoin="round"
       stroke="black"
       stroke-opacity="1"
       stroke-miterlimit="0"
       id="g82">
      <circle
         fill="none"
         r="7.5"
         clip-path="url(#clipPath1)"
         cx="14.5"
         cy="7.5"
         id="circle84"
         d="M 22,7.5 C 22,11.642136 18.642136,15 14.5,15 10.357864,15 7,11.642136 7,7.5 7,3.3578644 10.357864,0 14.5,0 18.642136,0 22,3.3578644 22,7.5 z" />
      <line
         y2="40"
         fill="none"
         x1="15"
         clip-path="url(#clipPath1)"
         x2="15"
         y1="15"
         id="line86" />
      <line
         y2="24"
         fill="none"
         x1="0"
         clip-path="url(#clipPath1)"
         x2="30"
         y1="24"
         id="line88" />
      <line
         y2="60"
         fill="none"
         x1="15"
         clip-path="url(#clipPath1)"
         x2="0"
         y1="40"
         id="line90" />
      <line
         y2="60"
         fill="none"
         x1="15"
         clip-path="url(#clipPath1)"
         x2="30"
         y1="40"
         id="line92" />
    </g>
    <g
       font-size="11"
       transform="translate(121,2)"
       fill-opacity="1"
       fill="white"
       text-rendering="geometricPrecision"
       font-family="sans-serif"
       stroke="white"
       stroke-opacity="1"
       id="g94">
      <ellipse
         rx="40"
         ry="20"
         clip-path="url(#clipPath2)"
         cx="40"
         cy="20"
         stroke="none"
         id="ellipse96"
         d="M 80,20 C 80,31.045695 62.09139,40 40,40 17.90861,40 0,31.045695 0,20 0,8.954305 17.90861,0 40,0 62.09139,0 80,8.954305 80,20 z" />
    </g>
    <g
       font-size="11"
       stroke-linecap="butt"
       transform="translate(121,2)"
       fill-opacity="1"
       fill="black"
       text-rendering="geometricPrecision"
       font-family="sans-serif"
       stroke-linejoin="round"
       stroke="black"
       stroke-opacity="1"
       stroke-miterlimit="0"
       id="g98">
      <ellipse
         rx="40"
         fill="none"
         ry="20"
         clip-path="url(#clipPath2)"
         cx="40"
         cy="20"
         id="ellipse100"
         d="M 80,20 C 80,31.045695 62.09139,40 40,40 17.90861,40 0,31.045695 0,20 0,8.954305 17.90861,0 40,0 62.09139,0 80,8.954305 80,20 z" />
    </g>
    <g
       font-size="11"
       transform="translate(131,122)"
       fill-opacity="1"
       fill="white"
       text-rendering="geometricPrecision"
       font-family="sans-serif"
       stroke="white"
       stroke-opacity="1"
       id="g102">
      <ellipse
         rx="40"
         ry="20"
         clip-path="url(#clipPath2)"
         cx="40"
         cy="20"
         stroke="none"
         id="ellipse104"
         d="M 80,20 C 80,31.045695 62.09139,40 40,40 17.90861,40 0,31.045695 0,20 0,8.954305 17.90861,0 40,0 62.09139,0 80,8.954305 80,20 z" />
    </g>
    <g
       font-size="11"
       stroke-linecap="butt"
       transform="translate(131,122)"
       fill-opacity="1"
       fill="black"
       text-rendering="geometricPrecision"
       font-family="sans-serif"
       stroke-linejoin="round"
       stroke="black"
       stroke-opacity="1"
       stroke-miterlimit="0"
       id="g106">
      <ellipse
         rx="40"
         fill="none"
         ry="20"
         clip-path="url(#clipPath2)"
         cx="40"
         cy="20"
         id="ellipse108"
         d="M 80,20 C 80,31.045695 62.09139,40 40,40 17.90861,40 0,31.045695 0,20 0,8.954305 17.90861,0 40,0 62.09139,0 80,8.954305 80,20 z" />
    </g>
    <g
       font-size="11"
       transform="translate(121,72)"
       fill-opacity="1"
       fill="white"
       text-rendering="geometricPrecision"
       font-family="sans-serif"
       stroke="white"
       stroke-opacity="1"
       id="g110">
      <ellipse
         rx="45"
         ry="20"
         clip-path="url(#clipPath3)"
         cx="45"
         cy="20"
         stroke="none"
         id="ellipse112"
         d="M 90,20 C 90,31.045695 69.852814,40 45,40 20.147186,40 0,31.045695 0,20 0,8.954305 20.147186,0 45,0 69.852814,0 90,8.954305 90,20 z" />
    </g>
    <g
       font-size="11"
       stroke-linecap="butt"
       transform="translate(121,72)"
       fill-opacity="1"
       fill="black"
       text-rendering="geometricPrecision"
       font-family="sans-serif"
       stroke-linejoin="round"
       stroke="black"
       stroke-opacity="1"
       stroke-miterlimit="0"
       id="g114">
      <ellipse
         rx="45"
         fill="none"
         ry="20"
         clip-path="url(#clipPath3)"
         cx="45"
         cy="20"
         id="ellipse116"
         d="M 90,20 C 90,31.045695 69.852814,40 45,40 20.147186,40 0,31.045695 0,20 0,8.954305 20.147186,0 45,0 69.852814,0 90,8.954305 90,20 z" />
    </g>
    <g
       font-size="11"
       transform="translate(121,192)"
       fill-opacity="1"
       fill="white"
       text-rendering="geometricPrecision"
       font-family="sans-serif"
       stroke="white"
       stroke-opacity="1"
       id="g118">
      <ellipse
         rx="40"
         ry="20"
         clip-path="url(#clipPath2)"
         cx="40"
         cy="20"
         stroke="none"
         id="ellipse120"
         d="M 80,20 C 80,31.045695 62.09139,40 40,40 17.90861,40 0,31.045695 0,20 0,8.954305 17.90861,0 40,0 62.09139,0 80,8.954305 80,20 z" />
    </g>
    <g
       font-size="11"
       stroke-linecap="butt"
       transform="translate(121,192)"
       fill-opacity="1"
       fill="black"
       text-rendering="geometricPrecision"
       font-family="sans-serif"
       stroke-linejoin="round"
       stroke="black"
       stroke-opacity="1"
       stroke-miterlimit="0"
       id="g122">
      <ellipse
         rx="40"
         fill="none"
         ry="20"
         clip-path="url(#clipPath2)"
         cx="40"
         cy="20"
         id="ellipse124"
         d="M 80,20 C 80,31.045695 62.09139,40 40,40 17.90861,40 0,31.045695 0,20 0,8.954305 17.90861,0 40,0 62.09139,0 80,8.954305 80,20 z" />
    </g>
    <g
       font-size="11"
       transform="translate(281,192)"
       fill-opacity="1"
       fill="white"
       text-rendering="geometricPrecision"
       font-family="sans-serif"
       stroke="white"
       stroke-opacity="1"
       id="g126">
      <ellipse
         rx="40"
         ry="20"
         clip-path="url(#clipPath2)"
         cx="40"
         cy="20"
         stroke="none"
         id="ellipse128"
         d="M 80,20 C 80,31.045695 62.09139,40 40,40 17.90861,40 0,31.045695 0,20 0,8.954305 17.90861,0 40,0 62.09139,0 80,8.954305 80,20 z" />
    </g>
    <g
       font-size="11"
       transform="matrix(1.0320389,0,0,1.0252019,281.01431,190.97762)"
       text-rendering="geometricPrecision"
       stroke-miterlimit="0"
       id="g130"
       style="font-size:11px;fill:#000000;fill-opacity:1;stroke:#000000;stroke-linecap:butt;stroke-linejoin:round;stroke-miterlimit:0;stroke-opacity:1;font-family:sans-serif">
      <ellipse
         rx="40"
         ry="20"
         clip-path="url(#clipPath2)"
         cx="40"
         cy="20"
         id="ellipse132"
         d="M 80,20 C 80,31.045695 62.09139,40 40,40 17.90861,40 0,31.045695 0,20 0,8.954305 17.90861,0 40,0 62.09139,0 80,8.954305 80,20 z"
         sodipodi:cx="40"
         sodipodi:cy="20"
         sodipodi:rx="40"
         sodipodi:ry="20"
         style="fill:none" />
    </g>
    <g
       font-size="11"
       transform="translate(231,282)"
       fill-opacity="1"
       fill="white"
       text-rendering="geometricPrecision"
       font-family="sans-serif"
       stroke="white"
       stroke-opacity="1"
       id="g134">
      <ellipse
         rx="40"
         ry="20"
         clip-path="url(#clipPath2)"
         cx="40"
         cy="20"
         stroke="none"
         id="ellipse136"
         d="M 80,20 C 80,31.045695 62.09139,40 40,40 17.90861,40 0,31.045695 0,20 0,8.954305 17.90861,0 40,0 62.09139,0 80,8.954305 80,20 z" />
    </g>
    <g
       font-size="11"
       transform="matrix(1.0474531,0,0,1,231.33217,282)"
       text-rendering="geometricPrecision"
       stroke-miterlimit="0"
       id="g138"
       style="font-size:11px;fill:#000000;fill-opacity:1;stroke:#000000;stroke-linecap:butt;stroke-linejoin:round;stroke-miterlimit:0;stroke-opacity:1;font-family:sans-serif">
      <ellipse
         rx="40"
         ry="20"
         clip-path="url(#clipPath2)"
         cx="40"
         cy="20"
         id="ellipse140"
         d="M 80,20 C 80,31.045695 62.09139,40 40,40 17.90861,40 0,31.045695 0,20 0,8.954305 17.90861,0 40,0 62.09139,0 80,8.954305 80,20 z"
         sodipodi:cx="40"
         sodipodi:cy="20"
         sodipodi:rx="40"
         sodipodi:ry="20"
         style="fill:none" />
    </g>
    <g
       font-size="11"
       transform="translate(121,302)"
       fill-opacity="1"
       fill="white"
       text-rendering="geometricPrecision"
       font-family="sans-serif"
       stroke="white"
       stroke-opacity="1"
       id="g142">
      <ellipse
         rx="40"
         ry="20"
         clip-path="url(#clipPath2)"
         cx="40"
         cy="20"
         stroke="none"
         id="ellipse144"
         d="M 80,20 C 80,31.045695 62.09139,40 40,40 17.90861,40 0,31.045695 0,20 0,8.954305 17.90861,0 40,0 62.09139,0 80,8.954305 80,20 z" />
    </g>
    <g
       font-size="11"
       transform="matrix(1.1419275,0,0,1.0326148,121.99349,302.2283)"
       text-rendering="geometricPrecision"
       stroke-miterlimit="0"
       id="g146"
       style="font-size:11px;fill:#000000;fill-opacity:1;stroke:#000000;stroke-linecap:butt;stroke-linejoin:round;stroke-miterlimit:0;stroke-opacity:1;font-family:sans-serif">
      <ellipse
         rx="40"
         ry="20"
         clip-path="url(#clipPath2)"
         cx="40"
         cy="20"
         id="ellipse148"
         d="M 80,20 C 80,31.045695 62.09139,40 40,40 17.90861,40 0,31.045695 0,20 0,8.954305 17.90861,0 40,0 62.09139,0 80,8.954305 80,20 z"
         sodipodi:cx="40"
         sodipodi:cy="20"
         sodipodi:rx="40"
         sodipodi:ry="20"
         style="fill:none" />
    </g>
    <g
       font-size="11"
       transform="translate(311,62)"
       fill-opacity="1"
       fill="white"
       text-rendering="geometricPrecision"
       font-family="sans-serif"
       stroke="white"
       stroke-opacity="1"
       id="g150">
      <circle
         r="7.5"
         clip-path="url(#clipPath1)"
         cx="14.5"
         cy="7.5"
         stroke="none"
         id="circle152"
         d="M 22,7.5 C 22,11.642136 18.642136,15 14.5,15 10.357864,15 7,11.642136 7,7.5 7,3.3578644 10.357864,0 14.5,0 18.642136,0 22,3.3578644 22,7.5 z" />
    </g>
    <g
       font-size="11"
       stroke-linecap="butt"
       transform="translate(311,62)"
       fill-opacity="1"
       fill="black"
       text-rendering="geometricPrecision"
       font-family="sans-serif"
       stroke-linejoin="round"
       stroke="black"
       stroke-opacity="1"
       stroke-miterlimit="0"
       id="g154">
      <circle
         fill="none"
         r="7.5"
         clip-path="url(#clipPath1)"
         cx="14.5"
         cy="7.5"
         id="circle156"
         d="M 22,7.5 C 22,11.642136 18.642136,15 14.5,15 10.357864,15 7,11.642136 7,7.5 7,3.3578644 10.357864,0 14.5,0 18.642136,0 22,3.3578644 22,7.5 z" />
      <line
         y2="40"
         fill="none"
         x1="15"
         clip-path="url(#clipPath1)"
         x2="15"
         y1="15"
         id="line158" />
      <line
         y2="24"
         fill="none"
         x1="0"
         clip-path="url(#clipPath1)"
         x2="30"
         y1="24"
         id="line160" />
      <line
         y2="60"
         fill="none"
         x1="15"
         clip-path="url(#clipPath1)"
         x2="0"
         y1="40"
         id="line162" />
      <line
         y2="60"
         fill="none"
         x1="15"
         clip-path="url(#clipPath1)"
         x2="30"
         y1="40"
         id="line164" />
    </g>
    <g
       font-size="11"
       transform="translate(21,242)"
       fill-opacity="1"
       fill="white"
       text-rendering="geometricPrecision"
       font-family="sans-serif"
       stroke="white"
       stroke-opacity="1"
       id="g166">
      <circle
         r="7.5"
         clip-path="url(#clipPath1)"
         cx="14.5"
         cy="7.5"
         stroke="none"
         id="circle168"
         d="M 22,7.5 C 22,11.642136 18.642136,15 14.5,15 10.357864,15 7,11.642136 7,7.5 7,3.3578644 10.357864,0 14.5,0 18.642136,0 22,3.3578644 22,7.5 z" />
    </g>
    <g
       font-size="11"
       stroke-linecap="butt"
       transform="translate(21,242)"
       fill-opacity="1"
       fill="black"
       text-rendering="geometricPrecision"
       font-family="sans-serif"
       stroke-linejoin="round"
       stroke="black"
       stroke-opacity="1"
       stroke-miterlimit="0"
       id="g170">
      <circle
         fill="none"
         r="7.5"
         clip-path="url(#clipPath1)"
         cx="14.5"
         cy="7.5"
         id="circle172"
         d="M 22,7.5 C 22,11.642136 18.642136,15 14.5,15 10.357864,15 7,11.642136 7,7.5 7,3.3578644 10.357864,0 14.5,0 18.642136,0 22,3.3578644 22,7.5 z" />
      <line
         y2="40"
         fill="none"
         x1="15"
         clip-path="url(#clipPath1)"
         x2="15"
         y1="15"
         id="line174" />
      <line
         y2="24"
         fill="none"
         x1="0"
         clip-path="url(#clipPath1)"
         x2="30"
         y1="24"
         id="line176" />
      <line
         y2="60"
         fill="none"
         x1="15"
         clip-path="url(#clipPath1)"
         x2="0"
         y1="40"
         id="line178" />
      <line
         y2="60"
         fill="none"
         x1="15"
         clip-path="url(#clipPath1)"
         x2="30"
         y1="40"
         id="line180" />
    </g>
    <g
       font-size="11"
       transform="translate(11,302)"
       fill-opacity="1"
       fill="black"
       text-rendering="geometricPrecision"
       font-family="sans-serif"
       stroke="black"
       stroke-opacity="1"
       id="g182">
      <text
         x="10"
         xml:space="preserve"
         y="12"
         clip-path="url(#clipPath4)"
         stroke="none"
         id="text184">Player</text>
    </g>
    <g
       font-size="11"
       transform="translate(302,122)"
       fill-opacity="1"
       fill="black"
       text-rendering="geometricPrecision"
       font-family="sans-serif"
       stroke="black"
       stroke-opacity="1"
       id="g186">
      <text
         x="10"
         xml:space="preserve"
         y="12"
         clip-path="url(#clipPath5)"
         stroke="none"
         id="text188">Board</text>
    </g>
    <g
       font-size="11"
       transform="translate(123.07338,299.92662)"
       text-rendering="geometricPrecision"
       id="g190"
       style="font-size:11px;fill:#000000;fill-opacity:1;stroke:#000000;stroke-opacity:1;font-family:sans-serif">
      <text
         x="23"
         xml:space="preserve"
         y="17"
         clip-path="url(#clipPath6)"
         id="text192"
         style="stroke:none">Return</text>
      <text
         x="7"
         xml:space="preserve"
         y="32"
         clip-path="url(#clipPath6)"
         id="text194"
         style="stroke:none">conveyor belt</text>
    </g>
    <g
       font-size="11"
       transform="translate(231,282)"
       fill-opacity="1"
       fill="black"
       text-rendering="geometricPrecision"
       font-family="sans-serif"
       stroke="black"
       stroke-opacity="1"
       id="g196">
      <text
         x="13"
         xml:space="preserve"
         y="17"
         clip-path="url(#clipPath6)"
         stroke="none"
         id="text198">Return hint</text>
      <text
         x="32"
         xml:space="preserve"
         y="32"
         clip-path="url(#clipPath6)"
         stroke="none"
         id="text200">tile</text>
    </g>
    <g
       font-size="11"
       transform="translate(281,192)"
       fill-opacity="1"
       fill="black"
       text-rendering="geometricPrecision"
       font-family="sans-serif"
       stroke="black"
       stroke-opacity="1"
       id="g202">
      <text
         x="8"
         xml:space="preserve"
         y="17"
         clip-path="url(#clipPath6)"
         stroke="none"
         id="text204">Return home</text>
      <text
         x="32"
         xml:space="preserve"
         y="32"
         clip-path="url(#clipPath6)"
         stroke="none"
         id="text206">tile</text>
    </g>
    <g
       font-size="11"
       transform="translate(121,192)"
       fill-opacity="1"
       fill="black"
       text-rendering="geometricPrecision"
       font-family="sans-serif"
       stroke="black"
       stroke-opacity="1"
       id="g208">
      <text
         x="9"
         xml:space="preserve"
         y="17"
         clip-path="url(#clipPath6)"
         stroke="none"
         id="text210">Robot move</text>
      <text
         x="21"
         xml:space="preserve"
         y="32"
         clip-path="url(#clipPath6)"
         stroke="none"
         id="text212">request</text>
    </g>
    <g
       font-size="11"
       transform="translate(121,72)"
       fill-opacity="1"
       fill="black"
       text-rendering="geometricPrecision"
       font-family="sans-serif"
       stroke="black"
       stroke-opacity="1"
       id="g214">
      <text
         x="8"
         xml:space="preserve"
         y="24"
         clip-path="url(#clipPath7)"
         stroke="none"
         id="text216">Tiles exchange</text>
    </g>
    <g
       font-size="11"
       transform="translate(131,122)"
       fill-opacity="1"
       fill="black"
       text-rendering="geometricPrecision"
       font-family="sans-serif"
       stroke="black"
       stroke-opacity="1"
       id="g218">
      <text
         x="14"
         xml:space="preserve"
         y="24"
         clip-path="url(#clipPath6)"
         stroke="none"
         id="text220">End game</text>
    </g>
    <g
       font-size="11"
       transform="translate(121,2)"
       fill-opacity="1"
       fill="black"
       text-rendering="geometricPrecision"
       font-family="sans-serif"
       stroke="black"
       stroke-opacity="1"
       id="g222">
      <text
         x="20"
         xml:space="preserve"
         y="24"
         clip-path="url(#clipPath6)"
         stroke="none"
         id="text224">Initialize</text>
    </g>
    <g
       font-size="11"
       transform="translate(2,162)"
       fill-opacity="1"
       fill="black"
       text-rendering="geometricPrecision"
       font-family="sans-serif"
       stroke="black"
       stroke-opacity="1"
       id="g226">
      <text
         x="11"
         xml:space="preserve"
         y="12"
         clip-path="url(#clipPath8)"
         stroke="none"
         id="text228">Controller</text>
    </g>
    <g
       font-size="11"
       stroke-linecap="butt"
       transform="translate(111,182)"
       fill-opacity="1"
       fill="black"
       text-rendering="geometricPrecision"
       font-family="sans-serif"
       stroke-linejoin="round"
       stroke-dasharray="4"
       stroke="black"
       stroke-opacity="1"
       id="g230">
      <line
         y2="120"
         fill="none"
         x1="50"
         clip-path="url(#clipPath9)"
         x2="50"
         y1="50"
         id="line232" />
      <line
         clip-path="url(#clipPath9)"
         fill="none"
         x1="50"
         x2="56"
         y1="120"
         y2="108"
         stroke-dasharray="none"
         id="line234" />
      <line
         clip-path="url(#clipPath9)"
         fill="none"
         x1="50"
         x2="44"
         y1="120"
         y2="108"
         stroke-dasharray="none"
         id="line236" />
    </g>
    <g
       font-size="11"
       stroke-linecap="butt"
       transform="translate(145,173)"
       fill-opacity="1"
       fill="black"
       text-rendering="geometricPrecision"
       font-family="sans-serif"
       stroke-linejoin="round"
       stroke-dasharray="4"
       stroke="black"
       stroke-opacity="1"
       id="g238">
      <line
         y2="118"
         fill="none"
         x1="50"
         clip-path="url(#clipPath10)"
         x2="92"
         y1="50"
         id="line240" />
      <line
         clip-path="url(#clipPath10)"
         fill="none"
         x1="92"
         x2="91"
         y1="118"
         y2="105"
         stroke-dasharray="none"
         id="line242" />
      <line
         clip-path="url(#clipPath10)"
         fill="none"
         x1="92"
         x2="80"
         y1="118"
         y2="111"
         stroke-dasharray="none"
         id="line244" />
    </g>
    <g
       font-size="11"
       stroke-linecap="butt"
       transform="translate(151,162)"
       fill-opacity="1"
       fill="black"
       text-rendering="geometricPrecision"
       font-family="sans-serif"
       stroke-linejoin="round"
       stroke-dasharray="4"
       stroke="black"
       stroke-opacity="1"
       id="g246">
      <line
         y2="50"
         fill="none"
         x1="50"
         clip-path="url(#clipPath11)"
         x2="130"
         y1="50"
         id="line248" />
      <line
         clip-path="url(#clipPath11)"
         fill="none"
         x1="130"
         x2="118"
         y1="50"
         y2="44"
         stroke-dasharray="none"
         id="line250" />
      <line
         clip-path="url(#clipPath11)"
         fill="none"
         x1="130"
         x2="118"
         y1="50"
         y2="56"
         stroke-dasharray="none"
         id="line252" />
    </g>
    <g
       font-size="11"
       stroke-linecap="butt"
       transform="translate(1,-17)"
       fill-opacity="1"
       fill="black"
       text-rendering="geometricPrecision"
       font-family="sans-serif"
       stroke-linejoin="round"
       stroke="black"
       stroke-opacity="1"
       id="g254">
      <line
         y2="149"
         fill="none"
         x1="127"
         clip-path="url(#clipPath12)"
         x2="50"
         y1="50"
         id="line256" />
    </g>
    <g
       font-size="11"
       stroke-linecap="butt"
       transform="translate(1,82)"
       fill-opacity="1"
       fill="black"
       text-rendering="geometricPrecision"
       font-family="sans-serif"
       stroke-linejoin="round"
       stroke="black"
       stroke-opacity="1"
       id="g258">
      <line
         y2="50"
         fill="none"
         x1="135"
         clip-path="url(#clipPath13)"
         x2="50"
         y1="50"
         id="line260" />
    </g>
    <g
       font-size="11"
       stroke-linecap="butt"
       transform="translate(1,58)"
       fill-opacity="1"
       fill="black"
       text-rendering="geometricPrecision"
       font-family="sans-serif"
       stroke-linejoin="round"
       stroke="black"
       stroke-opacity="1"
       id="g262">
      <line
         y2="74"
         fill="none"
         x1="135"
         clip-path="url(#clipPath14)"
         x2="50"
         y1="50"
         id="line264" />
    </g>
    <g
       font-size="11"
       stroke-linecap="butt"
       transform="translate(1,82)"
       fill-opacity="1"
       fill="black"
       text-rendering="geometricPrecision"
       font-family="sans-serif"
       stroke-linejoin="round"
       stroke="black"
       stroke-opacity="1"
       id="g266">
      <line
         y2="50"
         fill="none"
         x1="128"
         clip-path="url(#clipPath15)"
         x2="50"
         y1="117"
         id="line268" />
    </g>
    <g
       font-size="11"
       stroke-linecap="butt"
       transform="translate(139,-13)"
       fill-opacity="1"
       fill="black"
       text-rendering="geometricPrecision"
       font-family="sans-serif"
       stroke-linejoin="round"
       stroke="black"
       stroke-opacity="1"
       id="g270">
      <line
         y2="105"
         fill="none"
         x1="50"
         clip-path="url(#clipPath16)"
         x2="172"
         y1="50"
         id="line272" />
    </g>
    <g
       font-size="11"
       stroke-linecap="butt"
       transform="translate(147,42)"
       fill-opacity="1"
       fill="black"
       text-rendering="geometricPrecision"
       font-family="sans-serif"
       stroke-linejoin="round"
       stroke="black"
       stroke-opacity="1"
       id="g274">
      <line
         y2="50"
         fill="none"
         x1="50"
         clip-path="url(#clipPath17)"
         x2="164"
         y1="84"
         id="line276" />
    </g>
    <g
       font-size="11"
       stroke-linecap="butt"
       transform="translate(161,42)"
       fill-opacity="1"
       fill="black"
       text-rendering="geometricPrecision"
       font-family="sans-serif"
       stroke-linejoin="round"
       stroke="black"
       stroke-opacity="1"
       id="g278">
      <line
         y2="50"
         fill="none"
         x1="50"
         clip-path="url(#clipPath18)"
         x2="149"
         y1="50"
         id="line280" />
    </g>
    <g
       font-size="11"
       stroke-linecap="butt"
       transform="translate(143,42)"
       fill-opacity="1"
       fill="black"
       text-rendering="geometricPrecision"
       font-family="sans-serif"
       stroke-linejoin="round"
       stroke="black"
       stroke-opacity="1"
       id="g282">
      <line
         y2="50"
         fill="none"
         x1="50"
         clip-path="url(#clipPath19)"
         x2="168"
         y1="157"
         id="line284" />
    </g>
    <g
       font-size="11"
       stroke-linecap="butt"
       transform="translate(1,176)"
       fill-opacity="1"
       fill="black"
       text-rendering="geometricPrecision"
       font-family="sans-serif"
       stroke-linejoin="round"
       stroke="black"
       stroke-opacity="1"
       id="g286">
      <line
         y2="96"
         fill="none"
         x1="130"
         clip-path="url(#clipPath20)"
         x2="50"
         y1="50"
         id="line288" />
    </g>
    <g
       font-size="11"
       stroke-linecap="butt"
       transform="translate(148,107)"
       fill-opacity="1"
       fill="black"
       text-rendering="geometricPrecision"
       font-family="sans-serif"
       stroke-linejoin="round"
       stroke-dasharray="4"
       stroke="black"
       stroke-opacity="1"
       id="g290">
      <line
         y2="90"
         fill="none"
         x1="50"
         clip-path="url(#clipPath21)"
         x2="145"
         y1="50"
         id="line292" />
      <line
         clip-path="url(#clipPath21)"
         fill="none"
         x1="145"
         x2="137"
         y1="90"
         y2="80"
         stroke-dasharray="none"
         id="line294" />
      <line
         clip-path="url(#clipPath21)"
         fill="none"
         x1="145"
         x2="132"
         y1="90"
         y2="91"
         stroke-dasharray="none"
         id="line296" />
    </g>
    <g
       font-size="11"
       transform="translate(241,162)"
       fill-opacity="1"
       fill="black"
       text-rendering="geometricPrecision"
       font-family="sans-serif"
       stroke="black"
       stroke-opacity="1"
       id="g298">
      <text
         x="9"
         xml:space="preserve"
         y="12"
         clip-path="url(#clipPath22)"
         stroke="none"
         id="text300">&lt;&lt;Include&gt;&gt;</text>
    </g>
    <g
       font-size="11"
       transform="translate(198,192)"
       fill-opacity="1"
       fill="black"
       text-rendering="geometricPrecision"
       font-family="sans-serif"
       stroke="black"
       stroke-opacity="1"
       id="g302">
      <text
         x="9"
         xml:space="preserve"
         y="12"
         clip-path="url(#clipPath22)"
         stroke="none"
         id="text304">&lt;&lt;Include&gt;&gt;</text>
    </g>
    <g
       font-size="11"
       transform="translate(211,242)"
       fill-opacity="1"
       fill="black"
       text-rendering="geometricPrecision"
       font-family="sans-serif"
       stroke="black"
       stroke-opacity="1"
       id="g306">
      <text
         x="9"
         xml:space="preserve"
         y="12"
         clip-path="url(#clipPath22)"
         stroke="none"
         id="text308">&lt;&lt;Include&gt;&gt;</text>
    </g>
    <g
       font-size="11"
       transform="translate(91,262)"
       fill-opacity="1"
       fill="black"
       text-rendering="geometricPrecision"
       font-family="sans-serif"
       stroke="black"
       stroke-opacity="1"
       id="g310">
      <text
         x="9"
         xml:space="preserve"
         y="12"
         clip-path="url(#clipPath22)"
         stroke="none"
         id="text312">&lt;&lt;Include&gt;&gt;</text>
    </g>
    <g
       fill="rgb(120,120,120)"
       text-rendering="geometricPrecision"
       fill-opacity="1"
       font-size="10"
       stroke-opacity="1"
       stroke="rgb(120,120,120)"
       id="g314" />
  </g>
</svg>
